<svg width="640" height="400" xmlns="http://www.w3.org/2000/svg">
  <rect x="0" y="0" width="800" height="400" style="fill:SteelBlue"></rect>
  <g>
    <rect x="10" y="10" width="200" height="380" style="fill:Tan"></rect>
    <text x="70" y="370" font-size="20px"  fill="black">线程共享</text>
    <g fill="SpringGreen">
      <rect x="20" y="20" width="180" height="100"></rect>
      <rect x="20" y="130" width="180" height="100"></rect>
      <rect x="20" y="240" width="180" height="100"></rect>
    </g>
    <g fill="black">
      <text x="70" y="75" font-size="20px">虚拟机栈</text>
      <text x="60" y="185" font-size="20px">本地方法栈</text>
      <text x="60" y="300" font-size="20px">程序计数器</text>
    </g>
  </g>

  <g>
    <rect x="220" y="10" width="300" height="380" style="fill:Tan"></rect>
    <text x="330" y="370" font-size="20px"  fill="black">线程独享</text>
    <g fill="SpringGreen">
      <rect x="230" y="20" width="280" height="120"></rect>
      <rect x="230" y="160" width="280" height="180"></rect>
    </g>
    <g fill="SandyBrown">
      <rect x="240" y="70" width="260" height="50"></rect>
    </g>
    <g fill="black">
      <text x="340" y="55" font-size="20px">方法区</text>
      <text x="310" y="100" font-size="20px">运行时常量池</text>
      <text x="360" y="190" font-size="20px">堆</text>
    </g>
    <g fill="SandyBrown">
      <rect x="240" y="200" width="170" height="130"></rect>
      <rect x="420" y="200" width="80" height="130"></rect>
    </g>
    <g fill="black">
      <text x="255" y="300" font-size="20px">年轻代</text>
      <text x="430" y="270" font-size="20px">老年代</text>
    </g>
    <g fill="LightSeaGreen">
      <rect x="250" y="210" width="70" height="50"></rect>
      <rect x="330" y="210" width="70" height="50"></rect>
      <rect x="330" y="270" width="70" height="50"></rect>
    </g>
    <g fill="black">
      <text x="265" y="240" font-size="20px">Eden</text>
      <text x="344" y="240" font-size="20px">From</text>
      <text x="355" y="300" font-size="20px">To</text>
    </g>
  </g>

  <g>
    <rect x="530" y="10" width="100" height="380" style="fill:Tan"></rect>
    <text x="540" y="370" font-size="20px"  fill="black">直接内存</text>
    <g fill="SpringGreen">
      <rect x="540" y="20" width="80" height="100"></rect>
    </g>
    <g fill="black">
      <text x="560" y="75" font-size="20px">NIO</text>
    </g>
  </g>
</svg>